<svg xmlns="http://www.w3.org/2000/svg" width="479.061" height="169" viewBox="0 0 479.061 169"><defs><style>.a,.c,.i{fill:none}.b,.d{opacity:.7}.b{clip-path:url(#a)}.c{stroke:#e9e9e9}.d{clip-path:url(#b)}.e,.f{fill:#014da2}.f{fill-rule:evenodd}.g,.j{stroke:none;fill-opacity:1;}.h{fill:#d1d1d1;font-size:8px;font-family:MicrosoftYaHei,Microsoft YaHei}.i{stroke:#efefef}</style><clipPath id="a"><path d="M0 0h438v147H0z" class="a"/></clipPath><clipPath id="b"><path d="M0 0h447v141H0z" class="a"/></clipPath><clipPath id="c"><path d="M0 0h447v16.5H0z" class="a"/></clipPath><clipPath id="d"><path d="M0 0h26v142.5H0z" class="a"/></clipPath></defs><g class="b"><path d="M7 22v144.5M19 22v144.5M31 22v144.5M43 22v144.5M55 22v144.5M67 22v144.5M79 22v144.5M91 22v144.5M103 22v144.5M115 22v144.5M127 22v144.5M139 22v144.5M151 22v144.5M163 22v144.5M175 22v144.5M187 22v144.5M199 22v144.5M211 22v144.5M223 22v144.5M235 22v144.5M247 22v144.5M259 22v144.5M271 22v144.5M283 22v144.5M295 22v144.5M307 22v144.5M319 22v144.5M331 22v144.5M343 22v144.5M355 22v144.5M367 22v144.5M379 22v144.5M391 22v144.5M403 22v144.5M415 22v144.5M427 22v144.5M439 22v144.5" class="c"/></g><g class="d"><path d="M0 28h446M440 28h446M0 40h446M440 40h446M0 52h446M440 52h446M0 64h446M440 64h446M0 76h446M440 76h446M0 88h446M440 88h446M0 100h446M440 100h446M0 112h446M440 112h446M0 124h446M440 124h446M0 136h446M440 136h446M0 148h446M440 148h446M0 160h446M440 160h446" class="c"/></g><path d="M126.979 104.384c.386-1.536.885-1.642 2.117-1.254 1.512.493 3.607 1.183 4.8 1.685 1.043.418.775 1.4.595 2.036-1.756 7.118-3.182 13.52-5.267 19.006-1.319 3.483-2.878 4.981-5.261 4.307-1.605-.444-3.051-1.145-4.417-1.616 2.482-5.821 4.9-13.887 7.435-24.163m3.647-18.058V54.043s-.526-7.094 6.282-7.094h53.159c8.421 0 7.51 7.3 7.51 7.3s-.057 26.676-.057 31.864c0 7.171-5.36 7.347-5.36 7.347h-54.69c-6.245 0-6.846-.52-6.846-7.128m10.53-32.211s-2.594-.268-2.594 2.1v8.912c0 2.005 2.594 2.088 2.594 2.088h19.182v-13.1zm.014 20.26s-2.608.213-2.608 2.482v7.2c0 2.089 2.531 2.206 2.531 2.206h19.245V74.437zm2.527 29.217h5.267s2.781.412 2.781 4.175c0 6.485-.022 16.913-.022 16.913 0 3.726.873 3.866 5.433 3.866h19.829a7.82 7.82 0 0 0 4.759-1.482c1.311-.99 2.373-4.569 3.146-10.788a20.686 20.686 0 0 0 8.32 5.078c-1.835 6.192-3.952 10.165-6.322 11.833a13.972 13.972 0 0 1-8.318 2.535h-28.204c-5.232 0-6.262-1.376-6.262-6.306v-16.089c0-2.825-.148-6.055-.408-9.736m16.641-2.519c1.693-.82 3.223-1.693 4.668-2.409.889-.447 1.91-.572 2.951 1.514 1.551 3.176 2.326 4.636 3.712 7.23 1.283 2.452 3.532 5.255-.388 7.751-1.329.867-2.624 1.6-3.8 2.4q-3.58-8.467-7.142-16.487m27.729-46.952l-20.2-.006v13.1h20.218a2.056 2.056 0 0 0 1.981-2.117v-8.9a2.1 2.1 0 0 0-2-2.08m0 20.311h-20.2v11.835h20.219c1.248 0 1.981-.524 1.981-2.19v-7.553a2.039 2.039 0 0 0-2-2.089m.806 30.861c1.342-.814 2.6-2.044 4.183-3.079a2.86 2.86 0 0 1 3.716.753c2.706 3.442 4.977 6.089 7.447 9.353 1.518 1.983 4.317 5.642 1.711 8.685-1.183 1.35-3.012 1.861-4.262 3.018a218.773 218.773 0 0 0-12.795-18.73" class="e"/><path d="M128.775 104.898a1.028 1.028 0 01.126-.414 1.043 1.043 0 01-.773.432 1.256 1.256 0 01.424.112c1.244.388 3.5 1.149 4.686 1.626a.935.935 0 01-.449-.725 1.29 1.29 0 01-.057.39c-.03.053-.779 3.166-.779 3.166a144.607 144.607 0 01-4.441 15.645c-1.368 3.611-2.383 3.325-3.085 3.13a26.739 26.739 0 01-2.736-.976c-.511-.193-1.033-.408-1.571-.609l1.1 2.7c2.419-5.667 4.818-13.449 7.554-24.476m-9.832 25.531a14.458 14.458 0 011.459.548 25.017 25.017 0 003.087 1.092c3.249.909 5.732-.932 7.453-5.49a146.26 146.26 0 004.561-16.079l.8-3.13c.716-2.915-.8-4.011-1.75-4.4-1.24-.5-3.369-1.216-4.906-1.723a3.5 3.5 0 00-2.86.089 3.855 3.855 0 00-1.583 2.549c-2.712 10.83-5.036 18.4-7.347 23.861l-.85 1.975zM132.472 86.33V53.902a6.1 6.1 0 011.137-3.763 4.114 4.114 0 013.3-1.238h53.159c2.2 0 3.824.574 4.737 1.713a5.132 5.132 0 01.946 3.357l-.018.14v.122l-.039 31.878c0 5.121-3.227 5.366-3.607 5.383h-54.615c-1.475 0-3.98 0-4.488-.568-.516-.522-.516-3.286-.516-4.6m5 9.091h54.687c2.535-.081 7.226-2.125 7.226-9.31l.041-31.878-.014.266a9.161 9.161 0 00-1.836-6.489c-1.668-2.011-4.185-3.032-7.51-3.032h-53.154a7.616 7.616 0 00-6.04 2.519 9.716 9.716 0 00-2.058 6.688l-.026-.138V86.33c0 3.327.14 5.825 1.6 7.39 1.468 1.587 3.771 1.7 7.088 1.7" class="e"/><path d="M141.333 52.167a4.767 4.767 0 00-3.467 1.1 3.988 3.988 0 00-1.159 2.953v8.912c0 2.685 2.255 4 4.372 4.078h21.141V52.167h-20.887zm17.159 1.953v13.107l1.847-1.953h-19.183a1.494 1.494 0 01-.806-.284.469.469 0 01.045.173v-8.936a.277.277 0 01.014-.106.289.289 0 00-.059.1 1.047 1.047 0 01.609-.114l.108.016h19.272zM141.02 72.403a4.48 4.48 0 00-4.313 4.459v7.2a4.276 4.276 0 004.313 4.173h21.2V72.462h-1.865l-19.163-.072h-.1zm17.472 2.034v11.831l1.847-1.975h-19.247a1.6 1.6 0 01-.729-.278.193.193 0 01.03.081v-7.252c0-.371.938-.513.938-.513h-.162l19.168.053zM143.697 105.574h5.261l-.262-.03c.351.083 1.208.461 1.208 2.222l-.014 16.919c0 5.841 3.065 5.841 7.266 5.841h19.832a9.578 9.578 0 005.8-1.833c1.327-1 2.8-3.2 3.95-12.133l-3.083 1.183a22.341 22.341 0 009.091 5.517l-1.277-2.5c-2.139 7.14-4.224 9.807-5.628 10.806a12.089 12.089 0 01-7.272 2.208h-28.203c-4.248 0-4.421-.5-4.421-4.356v-16.09c0-2.864-.14-6.176-.424-9.862zm-1.461 7.754v16.089c0 6.2 2.06 8.281 8.127 8.281h28.206a15.6 15.6 0 009.332-2.868c2.754-1.967 5.066-6.164 7.071-12.894l.591-1.938-1.863-.536a18.934 18.934 0 01-7.56-4.632l-2.594-2.5-.477 3.682c-1.059 8.19-2.257 9.33-2.385 9.428a5.944 5.944 0 01-3.7 1.135h-19.828a12.537 12.537 0 01-3.481-.262c.014.028.047.059.061.059-.047-.03-.162-.359-.162-1.691l.036-16.919c0-4.325-2.886-5.89-4.406-6.121l-.1-.006h-7.378l.156 2.123c.244 3.6.361 6.822.361 9.572" class="e"/><path d="M161.087 102.852c1.027-.485 2.024-1.007 2.973-1.5.617-.327 1.185-.639 1.75-.907a.67.67 0 01.181-.075c-.047.008-.15 0-.181-.051a3.031 3.031 0 01.508.789 201.241 201.241 0 003.176 6.186l.552 1.066c.148.3.361.619.518.9 1.435 2.61 1.514 3.109-.236 4.234-.558.357-1.133.694-1.654 1.043-.773.447-1.476.893-2.192 1.364l2.675.85a934.725 934.725 0 00-7.142-16.534zm7.362 16.353c.641-.4 1.321-.826 2.044-1.26.554-.325 1.147-.708 1.733-1.074 5.072-3.225 2.663-7.548 1.494-9.613-.158-.292-.343-.552-.455-.822l-.546-1.063c-1.049-1.993-1.8-3.414-3.136-6.1-1.821-3.682-4.36-2.9-5.35-2.385-.572.284-1.171.6-1.819.948-.919.461-1.865.976-2.817 1.437l-1.717.834.8 1.8a868.464 868.464 0 017.118 16.465l.873 2.058zM188.07 52.167h-22.036v17.045h22.052a3.946 3.946 0 003.8-4.106v-8.9a3.946 3.946 0 00-3.818-4.039m.15 4.039v8.9a.225.225 0 01-.022.126c0-.028.022-.043.061-.059a1.533 1.533 0 01-.264.1H167.87l1.851 1.953v-13.1l-1.851 2h20.2c-.006 0 .128.061.189.1 0 0-.039-.053-.061-.089a.118.118 0 01.022.081M188.07 72.462h-22.036v15.772h22.052a3.64 3.64 0 002.787-1.051 4.4 4.4 0 001.013-3.105v-7.567a3.887 3.887 0 00-3.818-4.049m.15 4.063v7.552a1.206 1.206 0 01-.053.436.56.56 0 01.246-.24 1.26 1.26 0 01-.325.026H167.87l1.851 1.967V74.445l-1.851 1.938h20.2c0 .022.128.083.189.1 0-.014-.061-.043-.061-.081a.256.256 0 01.022.12M189.78 107.005a19.807 19.807 0 002.237-1.632 23.479 23.479 0 012.013-1.486 1.106 1.106 0 011.319.357l3.258 4.019c1.415 1.764 2.768 3.436 4.163 5.316 2.119 2.71 3.051 4.613 1.808 6.1a8.291 8.291 0 01-1.875 1.336 11.978 11.978 0 00-2.249 1.526l2.775.424a215.256 215.256 0 00-12.947-18.914zm13.106 18.5a10.617 10.617 0 011.565-1.041 9.822 9.822 0 002.835-2.133c3.692-4.285-.045-9.174-1.624-11.263-1.463-1.906-2.837-3.584-4.287-5.37l-3.176-3.982a4.667 4.667 0 00-6.113-1.21c-.842.568-1.605 1.187-2.259 1.709a15.447 15.447 0 01-1.878 1.356l-1.879 1.169 1.372 1.8a207.267 207.267 0 0112.685 18.575l1.181 1.892zM230.045 56.354c2.018.6 2.121.649 3.954 1.26 3.055 1.007 3.653 1.352 2.9 4.792-.5 2.1-.946 3.13-1.693 7.057h8.72l.024-26.211h3.347c4.22 0 3.8 3.69 3.8 3.69l-.033 22.521h6.848a2.74 2.74 0 013.022 2.731v4.449c-2.614-.26-5.9-.416-9.868-.416v18.612c2.35-.97 4.628-1.894 6.74-2.923a2.124 2.124 0 013.128 1.433c.209 1.437.509 2.923.808 4.449a1009.396 1009.396 0 00-10.676 4.65v22.824c0 3.144.1 6.456.191 9.868.075 4.741-2.791 4.512-2.791 4.512h-4.94q.4-7.182.4-14.38v-20.289q-10.312 4.2-14.634 7.2a55.527 55.527 0 00-4.378-8.884c3.424-.282 9.769-2.273 19.012-5.927V76.227h-10.311c-1.049 5.052-1.951 9.31-2.76 12.687a27.969 27.969 0 00-6.741-2.967 107.939 107.939 0 003.767-14.364 109.028 109.028 0 002.164-15.229m33.689 20.289c3.69.3 7.786.438 12.278.438h7.522V62.289h-5.527q-6.36 0-11.121.424v-7.619c2.945.262 6.619.414 11.121.414h5.527c0-5.352-.122-9.434-.39-12.255h4.662s3.065-.187 3.024 3.4c-.016 2.429-.168 5.395-.168 8.857h9.129c3.954 0 7.638-.152 11.086-.414v4.733a2.6 2.6 0 01-2.805 2.407c-1.878 0-17.41.055-17.41.055v14.79h15.048c3.726 0 7.256-.138 10.713-.438v3.371s.592 3.785-3.347 3.785c-2.5 0-10.142.047-10.142.047v12.267l12.71-.053v3.235s.481 3.556-3.574 3.556c-2.829 0-9.135.022-9.135.022v27.475c-.246 3.4-1.457 5.614-3.523 6.767-2.125 1.129-6.245 2.119-12.316 2.963a31.9 31.9 0 00-3.178-9.32 48.139 48.139 0 009.544 0c1.565-.29 2.358-1.67 2.375-4.2l-.016-23.68h-19.029c-4.49 0-8.437.142-11.865.424v-7.617c2.906.284 6.889.432 11.865.432h19.026V83.846H276.41c-4.762 0-8.989.132-12.679.428zm5.567 35.539a63.892 63.892 0 007.494-2.965c1.585 3.779 3.2 7.327 4.494 10.853.966 2.636.656 3.377-1.252 4.339-1.465.72-3.146 1.264-4.81 2.145a91.678 91.678 0 00-5.925-14.372" class="e"/><path d="M229.574 58.256c1.538.44 1.906.578 2.874.893l.988.337a9.02 9.02 0 0 1 1.977.806c-.022-.039-.075-.108-.089-.136a5.443 5.443 0 0 1-.217 1.79 96.98 96.98 0 0 1-.532 1.936 51.111 51.111 0 0 0-1.167 5.2l-.44 2.34h12.8v-1.958l.022-26.211-1.837 1.975h3.347a2.237 2.237 0 0 1 1.662.491 1.508 1.508 0 0 1 .3 1.029v.195l-.03 22.521-.024 1.963h5.559l3.147-.013a1.343 1.343 0 0 1 .966.284.953.953 0 0 1 .237.5v4.449l2.026-1.951c-2.673-.27-6.114-.418-10.077-.418h-1.837v23.42l2.476-1.021.505-.2c2.216-.915 4.339-1.8 6.349-2.764.315-.156.5-.1.6.089a.206.206 0 0 1-.047-.1c.236 1.439.5 2.951.818 4.53l1.12-2.257-10.676 4.648-1.167.507c.024 0 .024 1.317.024 1.317v22.824c0 2.06.045 4.094.087 6.253l.079 3.668a3.6 3.6 0 0 1-.481 2.324 1.117 1.117 0 0 1-.3.158h-5.092l1.843 2.095c.26-4.808.4-9.7.4-14.5v-23.14l-2.511 1.019c-7.025 2.886-11.934 5.3-14.985 7.36l2.714.938a58.633 58.633 0 0 0-4.5-9.207l-1.441 3.014c3.662-.286 10.059-2.281 19.542-6.03l1.181-.479v-24.47h-13.631l-.313 1.541c-1.076 5.153-1.969 9.29-2.752 12.62l2.645-1.244a27.677 27.677 0 0 0-7.136-3.144l1.274 2.618a105.892 105.892 0 0 0 3.81-14.674 116 116 0 0 0 2.229-15.5zm-3.5 12.925a100.893 100.893 0 0 1-3.674 14.072l-.769 2.078 2.044.546a24.7 24.7 0 0 1 6.286 2.758l2.1 1.242.562-2.474c.814-3.373 1.715-7.534 2.791-12.761l-1.8 1.561h10.313l-1.839-1.977v21.145l1.2-1.843c-9.048 3.58-15.275 5.543-18.533 5.809l-3.057.254 1.654 2.75a52.37 52.37 0 0 1 4.2 8.559l.824 2.212 1.878-1.266c2.813-1.912 7.615-4.27 14.331-7.021l-2.5-1.843v20.288c0 4.741-.126 9.539-.4 14.277l-.11 2.078h6.899a4.038 4.038 0 0 0 2.981-1.254 7.274 7.274 0 0 0 1.652-5.247l-.106-3.7a172.985 172.985 0 0 1-.089-6.15v-22.826l-1.175 1.813 10.721-4.65 1.441-.613-.353-1.632c-.3-1.506-.587-2.959-.79-4.331a4.141 4.141 0 0 0-2.054-2.878 3.8 3.8 0 0 0-3.658-.02c-1.922.915-3.982 1.766-6.154 2.661l-.5.2 2.517 1.841V76.227l-1.847 1.977a94.55 94.55 0 0 1 9.716.416l2.019.209v-6.635a4.924 4.924 0 0 0-1.275-3.264 4.81 4.81 0 0 0-3.613-1.447l-3.15.016h-3.7l1.847 1.965.014-22.515v.223a5.877 5.877 0 0 0-1.189-4.071 5.54 5.54 0 0 0-4.439-1.808h-5.192v1.961l-.018 26.211 1.839-1.965H235.2l1.792 2.352c.481-2.442.832-3.724 1.128-4.865a20.322 20.322 0 0 0 .554-2.132c1.076-4.814-.532-5.927-4.112-7.14l-1.031-.307c-.974-.333-1.4-.485-2.967-.923l-2.188-.656-.152 2.393a112.558 112.558 0 0 1-2.15 14.959" class="e"/><path d="M263.604 78.62c3.731.292 7.875.43 12.405.43h9.4v-1.969l-.026-14.792v-1.983h-7.37c-4.281 0-8.072.164-11.258.44l2 1.967v-7.619l-2 1.946c2.929.3 6.72.449 11.258.449h7.4v-1.978c-.026-5.494-.168-9.564-.428-12.45l-1.831 2.17h4.662a1.149 1.149 0 0 1 .889.3 1.74 1.74 0 0 1 .313 1.1c-.016 1.011-.045 2.107-.075 3.284-.047 1.656-.116 3.54-.116 5.594v1.981h10.969c3.97 0 7.755-.15 11.232-.449l-2-1.946v4.576c-.055.418-.337.6-.954.6l-17.411.039h-1.845v18.74h16.893c3.743 0 7.4-.138 10.857-.43l-1.993-1.977v3.706a1.64 1.64 0 0 1-.195 1.094 1.875 1.875 0 0 1-1.3.4l-10.142.03h-1.827v16.211l1.827-.012 12.71-.018-1.867-1.989v3.346l.036.172a1.425 1.425 0 0 1-.246.877 2.107 2.107 0 0 1-1.5.434h-10.963v29.278c-.2 2.691-1.057 4.374-2.543 5.172-1.313.708-4.423 1.766-11.691 2.783l2.06 1.587a35.809 35.809 0 0 0-3.371-9.884l-1.731 2.9c4.92.3 8.173.3 9.921-.018 1.457-.26 3.911-1.4 3.911-6.158v-25.655h-20.868c-4.528 0-8.551.126-12 .43l1.955 1.969v-7.617l-1.989 1.969c2.943.276 6.986.418 12.032.418h20.871v-16.2h-21.254c-4.762 0-9.077.142-12.807.418l1.979 1.987v-7.63zm.25 7.611c3.653-.276 7.869-.418 12.557-.418h19.408l-1.843-1.975v12.273l1.843-1.975h-19.023c-4.924 0-8.876-.142-11.705-.432l-2.019-.187v11.894l2.005-.162c3.365-.27 7.319-.418 11.719-.418h19.026l-1.843-1.961v23.68c0 2.131-.619 2.237-.824 2.271-1.009.175-3.379.331-9.121 0l-3.3-.2 1.614 3.109a31.419 31.419 0 0 1 2.949 8.7l.313 1.835 1.729-.246c6.337-.893 10.556-1.908 12.864-3.138 2.732-1.443 4.281-4.262 4.6-8.356v-27.651l-1.867 1.961h9.135a5.15 5.15 0 0 0 4.309-1.819 5.463 5.463 0 0 0 1.058-4.025l.038.313v-5.208l-1.853.026-12.687.016 1.867 1.975V83.838l-1.867 1.975 10.142-.069a4.984 4.984 0 0 0 4.108-1.766 5.9 5.9 0 0 0 1.053-4.285l.031.321v-5.478l-2 .156c-3.353.268-6.917.418-10.558.418h-15.049l1.845 1.971V62.289l-1.845 1.961 17.411-.039a4.453 4.453 0 0 0 4.622-4.279v-6.97l-1.961.181c-3.377.276-7.059.418-10.942.418h-9.13l1.845 1.946c0-1.985.077-3.858.116-5.48.018-1.185.039-2.318.039-3.363a5.571 5.571 0 0 0-1.4-4.009 4.884 4.884 0 0 0-3.554-1.364h-6.586l.177 2.16c.28 2.73.386 6.775.386 12.056l1.855-1.946h-5.527c-4.455 0-8.114-.142-10.93-.418l-2.028-.2.022 2.154v9.744l1.981-.164c3.1-.276 6.771-.424 10.954-.424h5.527l-1.855-1.961v14.789l1.855-1.971h-7.526c-4.453 0-8.5-.15-12.156-.418l-1.969-.15v11.837z" class="e"/><path d="M269.825 114.056a60.5 60.5 0 007.715-3.049l-2.411-.993 1.5 3.593c1.074 2.474 2.095 4.839 2.951 7.2a4.781 4.781 0 01.412 1.5.341.341 0 01.083-.187 3.624 3.624 0 01-.814.487 18.83 18.83 0 01-1.936.84 34.29 34.29 0 00-2.927 1.34l2.584 1.1a90.509 90.509 0 00-6.121-14.685zm6.217 14.242c.857-.447 1.776-.826 2.631-1.177a21.714 21.714 0 002.145-.948c3.3-1.624 3.268-3.9 2.184-6.818-.879-2.446-1.908-4.847-3.012-7.38l-1.48-3.548-.771-1.79c-.012-.016-1.668.775-1.668.775a57.275 57.275 0 01-7.323 2.87l-2.243.716 1.183 2.147a86.45 86.45 0 015.782 14.047l.717 2.125zM334.656 86.544v-3.958c4.764.282 9.659.418 14.66.418h61.826a84.652 84.652 0 0013.444-.859v3.341s.138 3.844-4.248 3.844h-10.806v39.341c0 3.927-1.112 6.6-3.367 8.031-2.251 1.413-5.728 2.405-10.51 2.949a24.605 24.605 0 00-3.132-9.72c4.987.826 7.83.826 8.506 0a6.9 6.9 0 00.99-4.214V89.331h-52.7c-3.917 0-6.9.051-10.664.051-4.488 0-4-2.837-4-2.837m11.1-6.083a24.109 24.109 0 00-5.135-8.035 242.68 242.68 0 004.287-.684 83.723 83.723 0 0017.892-4.8c5.3-2.269 8.569-5.078 9.9-8.462h-17.426c-3.966 0-7.971.254-11.942.254-2.88 0-3.118-2.283-3.118-2.283v-4.753q7.514.469 15.06.461h19a58.46 58.46 0 00.4-11.449c1.7.438 3.325.71 4.857.968 3.4.546 3.5 2.044 3.174 4.958-.207 1.721-.633 3.509-.915 5.523h22.2q7.127 0 15.45-.461l.01 2.421s.327 4.429-4.043 4.429c-3.952 0-34.4-.067-34.4-.067a18.7 18.7 0 00-1.191 3.383c15.09 3.384 26.69 6.754 34.897 10.136a31.7 31.7 0 00-5.18 8.029q-6.737-4.631-32.856-12.243a42.9 42.9 0 01-12.878 7.605 157.673 157.673 0 01-18.042 5.068m3.966 16.911h29.41c11.126 0 10.081 10.688 10.081 10.688s-.075 11.926-.075 18.614c0 4.092-4.031 4.084-4.031 4.084h-3.672v-6.745h-23.8s-.079-.546-.079 3.54c0 3.012-2.186 3.526-4.481 3.526-2.03 0-3.355.083-3.355.083zm28.09 6.351h-20.174l.006 13.93h20.392a3.18 3.18 0 003.4-3.254c.024-2.127 0-4.973 0-6.911 0-2.669-.639-3.765-3.623-3.765" class="e"/><path d="M336.517 86.544v-3.958l-1.957 1.953c4.751.29 9.71.426 14.752.426h61.83a88.626 88.626 0 0 0 13.735-.869l-2.127-1.951v3.341c0 .887-.436 1.886-2.411 1.886H407.68v41.3c0 3.211-.816 5.287-2.441 6.328-2.015 1.26-5.3 2.17-9.777 2.685l2.021 1.8a26.387 26.387 0 0 0-3.4-10.556l-1.877 2.951c7.147 1.2 9.217.611 10.226-.69.972-1.22 1.427-3.01 1.427-5.474V87.368h-54.547l-5.448.014-5.212.014c-1.575 0-2.032-.4-2.1-.477-.023-.016-.037-.059-.037-.126a.472.472 0 0 1-.034.126l.034-.179zm2.135 4.816l5.245-.018 5.415-.034h52.708l-1.865-1.977v36.388c0 1.983-.378 2.728-.564 2.953a1.488 1.488 0 0 1 .274-.231c-.106.061-1.325.516-7.047-.453l-3.854-.652 1.932 3.6a22.624 22.624 0 0 1 2.955 8.886l.164 2.015 1.847-.221c5.054-.6 8.778-1.677 11.238-3.227 2.852-1.78 4.272-5.044 4.295-9.718v-39.34l-1.863 1.977h10.806a5.679 5.679 0 0 0 6.1-5.89v-5.582l-2.137.371a85.525 85.525 0 0 1-13.16.828h-61.83c-4.952 0-9.876-.142-14.549-.432l-1.933-.1v6.038l.049-.386a4.189 4.189 0 0 0 .79 3.245c1.007 1.285 2.683 1.957 4.983 1.957" class="e"/><path d="M347.474 79.722a26.363 26.363 0 00-5.568-8.7l-1.053 3.355c1.5-.225 2.967-.465 4.323-.7a85.164 85.164 0 0018.312-4.918c5.732-2.462 9.385-5.657 10.911-9.527l1.072-2.722h-20.2c-2.013 0-4.029.055-6.012.13a160.01 160.01 0 01-5.931.124c-.719 0-1.2-.223-1.287-.6l.006.29v-4.756l-1.951 1.973c5.062.29 10.148.418 15.174.418h20.626l.213-1.709a60.249 60.249 0 00.414-11.841l-2.279 2.093c1.792.449 3.462.725 5.023.986 1.869.3 1.869.3 1.6 2.785a25.113 25.113 0 01-.436 2.685c-.16.871-.315 1.8-.443 2.75l-.3 2.251h24.3c4.751 0 9.992-.128 15.533-.418l-1.92-1.961v2.41a2.8 2.8 0 01-.528 1.888 2.1 2.1 0 01-1.669.558l-34.376-.055h-1.153l-.526 1.082a24.558 24.558 0 00-1.331 3.793l-.434 1.954 1.878.442c14.884 3.353 26.519 6.726 34.555 10.045l-.686-3.138a33.748 33.748 0 00-5.476 8.543l2.7-.828c-4.704-3.264-15.611-7.349-33.406-12.524l-.922-.274-.716.627a40.523 40.523 0 01-12.308 7.3 156.779 156.779 0 01-17.829 5zm16.919-2.488a44.331 44.331 0 0013.436-7.908l-1.654.347c17.173 5 28.052 9.05 32.379 12.018l1.794 1.244.887-2.1a30 30 0 014.824-7.514l1.794-2.123-2.509-1.04c-8.226-3.387-20.055-6.842-35.137-10.234l1.413 2.415a13.1 13.1 0 011.053-2.982l-1.662 1.1 34.4.049a5.664 5.664 0 004.4-1.823 6.947 6.947 0 001.486-4.711v-4.326l-1.951.1c-5.468.27-10.648.412-15.352.412h-22.2l1.845 2.273c.116-.889.268-1.76.42-2.588.2-1.023.39-1.991.487-2.99.357-3.158.26-6.312-4.727-7.124-1.478-.246-3.079-.524-4.727-.911l-2.517-.627.276 2.718a57.674 57.674 0 01-.39 10.991l1.816-1.741h-19c-4.952 0-9.967-.142-14.968-.412l-1.928-.106v7.045a4.669 4.669 0 004.954 4.027c2.036 0 4.065-.067 6.018-.122 1.959-.083 3.95-.132 5.924-.132h17.425l-1.7-2.728c-1.112 2.86-4.093 5.326-8.9 7.364a79.734 79.734 0 01-17.512 4.7 126.99 126.99 0 01-4.234.7l-3.662.528 2.624 2.8a21.915 21.915 0 014.726 7.354l.589 1.557 1.534-.357a154.273 154.273 0 0018.23-5.143M349.719 99.34h29.41c2.943 0 5.125.826 6.489 2.462 2.064 2.419 1.778 6.044 1.778 6.067v.185l-.1 18.62a1.934 1.934 0 01-.459 1.453 2.805 2.805 0 01-1.735.7h-3.672l1.829 1.932v-8.721h-25.622l1.837 1.693-.254-1.827-1.721.106c-1.784.148-1.784 1.08-1.784 5.551 0 .9-.29 1.068-.442 1.181a4.616 4.616 0 01-2.2.378c-2.1 0-3.41.091-3.44.091l1.92 1.953V97.37zm.108 33.788c.012 0 1.3-.079 3.247-.079a7.674 7.674 0 003.98-.867 5.018 5.018 0 002.365-4.624c0-2.7.028-3.215.028-3.306l-1.764 1.713-1.863-1.677.219 1.691h25.393l-1.886-1.967v8.717h5.557a6.451 6.451 0 004.372-1.839 6.1 6.1 0 001.508-4.218l.093-18.59v.179c.008-.209.443-5.352-2.7-9.121-2.133-2.476-5.22-3.728-9.247-3.728h-31.254v37.848z" class="e"/><path d="M377.807 101.734h-22.018v17.9h22.245a5.355 5.355 0 0 0 3.787-1.518 5.069 5.069 0 0 0 1.441-3.708v-6.92c0-2.677-.639-5.754-5.458-5.754m1.743 5.754v6.889c0 .343 0 1.344-1.455 1.313h-20.448l1.875 1.965v-13.932l-1.885 1.979h20.169c1.743 0 1.743 0 1.743 1.786" class="e"/><path d="M82.811 41.26c2.036-2.172.682-3.952.682-3.952s-.824-1.979-3.944-.7a112.124 112.124 0 00-40.392 27.711 89.816 89.816 0 00-19.038 32.637 2.649 2.649 0 001 3.791c1.013.589 2.72-.4 3.751-1.169a41.647 41.647 0 0115.06-7.69 54.257 54.257 0 0112.6-1.717c5.064-.187 6.739-2 6.739-2s1.8-1.4 2.927-5.821a104.387 104.387 0 017.183-20.418 81.169 81.169 0 0113.426-20.674M42.983 149.383a3.142 3.142 0 00-.341 3.867 2.824 2.824 0 002.933.6c10.25-4.007 28.127-12.5 42.347-28.787a93.075 93.075 0 0018.8-32.373c.859-2.679-.576-3.428-.607-3.436 0 0-1.362-1.356-3.595.294a44.861 44.861 0 01-15.387 7.694 47.249 47.249 0 01-11.234 2.018c-5.06.191-6.87 1.538-6.87 1.538s-2.789 1.327-3.909 5.75a114.667 114.667 0 01-7.7 20.538 107.263 107.263 0 01-14.437 22.297" class="f"/><g class="g"><text class="h" transform="translate(2.5 8)"><tspan x="0" y="0">0x</tspan></text><path d="M7 10.5v6" class="i"/><text class="h" transform="translate(38.5 8)"><tspan x="0" y="0">5x</tspan></text><path d="M43 10.5v6" class="i"/><text class="h" transform="translate(74.5 8)"><tspan x="0" y="0">10x</tspan></text><path d="M79 10.5v6" class="i"/><text class="h" transform="translate(110.5 8)"><tspan x="0" y="0">15x</tspan></text><path d="M115 10.5v6" class="i"/><text class="h" transform="translate(146.5 8)"><tspan x="0" y="0">20x</tspan></text><path d="M151 10.5v6" class="i"/><text class="h" transform="translate(182.5 8)"><tspan x="0" y="0">25x</tspan></text><path d="M187 10.5v6" class="i"/><text class="h" transform="translate(218.5 8)"><tspan x="0" y="0">30x</tspan></text><path d="M223 10.5v6" class="i"/><g><text class="h" transform="translate(254.5 8)"><tspan x="0" y="0">35x</tspan></text><path d="M259 10.5v6" class="i"/></g><g><text class="h" transform="translate(290.5 8)"><tspan x="0" y="0">40x</tspan></text><path d="M295 10.5v6" class="i"/></g><g><text class="h" transform="translate(326.5 8)"><tspan x="0" y="0">45x</tspan></text><path d="M331 10.5v6" class="i"/></g><g><text class="h" transform="translate(362.5 8)"><tspan x="0" y="0">50x</tspan></text><path d="M367 10.5v6" class="i"/></g><g><text class="h" transform="translate(398.5 8)"><tspan x="0" y="0">55x</tspan></text><path d="M403 10.5v6" class="i"/></g><g><text class="h" transform="translate(434.5 8)"><tspan x="0" y="0">60x</tspan></text><path d="M439 10.5v6" class="i"/></g></g><g class="j"><text class="h" transform="translate(460.06 31)"><tspan x="0" y="0">25x</tspan></text><path d="M458.56 28h-5.426" class="i"/><text class="h" transform="translate(460.06 64)"><tspan x="0" y="0">20x</tspan></text><path d="M458.56 61h-5.426" class="i"/><text class="h" transform="translate(460.06 97)"><tspan x="0" y="0">15x</tspan></text><path d="M458.56 94h-5.426" class="i"/><g><text class="h" transform="translate(460.06 130)"><tspan x="0" y="0">10x</tspan></text><path d="M458.56 127h-5.426" class="i"/></g><g><text class="h" transform="translate(460.06 163)"><tspan x="0" y="0">0x</tspan></text><path d="M458.56 160h-5.426" class="i"/></g></g></svg>