<svg xmlns="http://www.w3.org/2000/svg" width="372.452" height="71.44" viewBox="0 0 372.452 71.44" fill="#014da2"><g transform="translate(-439.563 -101.521)"><g transform="translate(503.329 102.12)"><path class="a" d="M484.493,149.744l9.93.011a23.141,23.141,0,0,0,7.294,7.23,16.931,16.931,0,0,0,8.859,2.309,14.59,14.59,0,0,0,9.042-2.613,8,8,0,0,0,3.456-6.716c0-4.313-4.641-7.516-13.911-9.563-1.666-.366-2.927-.653-3.869-.863-6.044-1.4-10.451-3.51-13.179-6.327q-4.141-4.228-4.139-11.411c0-5.911,1.971-10.718,5.945-14.357,3.953-3.656,9.19-5.5,15.742-5.5a29.57,29.57,0,0,1,13.426,2.86c3.866,1.895,10.109,8.348,11.195,15.292h-9.628a16.963,16.963,0,0,0-6.135-6.063,18.377,18.377,0,0,0-8.672-2.058,13.791,13.791,0,0,0-8.213,2.2,7,7,0,0,0-3.012,5.917c0,4.4,4.749,7.573,14.163,9.493.944.21,1.665.368,2.125.448,6.734,1.355,11.605,3.554,14.635,6.53,2.985,2.993,4.526,7.115,4.537,12.357a19.592,19.592,0,0,1-6.392,15.155q-6.419,5.818-17.005,5.83c-5.634,0-10.918-.528-14.9-3.33-4.671-3.281-7.756-5.925-11.289-16.835" transform="translate(-484.493 -101.943)"/></g><g transform="translate(561.784 103.695)"><path class="a" d="M530.182,169.2h-4.424l-.078-66.144H536.6s-.06,53.4-.06,58.9-1.495,7.242-6.355,7.242" transform="translate(-525.68 -103.053)"/></g><g transform="translate(579.111 133.207)"><path class="a" d="M557.943,132.919H537.91l-.021-9.072,25.606.057v2.951a6.028,6.028,0,0,1-5.552,6.064" transform="translate(-537.889 -123.847)"/></g><g transform="translate(603.597 103.695)"><path class="a" d="M555.142,113.883v-10.83h44.043s.023,4.886.023,4.938a5.97,5.97,0,0,1-5.156,5.893H582.566s.043,43.065.043,49.465a5.8,5.8,0,0,1-5.263,5.849h-5.5l-.071-55.313Z" transform="translate(-555.142 -103.053)"/></g><g transform="translate(655.165 103.695)"><path class="a" d="M627.56,169.2h-36l-.084-66.144,41.192.013s.027,3.023.027,4.161a5.871,5.871,0,0,1-5.738,6.07H602.083l.041,16.274h28.24v4.357a5.949,5.949,0,0,1-6.321,5.8H602.124l.034,19.226h31.886v4.219a6.053,6.053,0,0,1-6.485,6.023" transform="translate(-591.477 -103.053)"/></g><g transform="translate(703.854 102.12)"><path class="a" d="M676.315,146.035c-1.056,8.978-5.122,15.492-9.188,18.771a22.964,22.964,0,0,1-14.808,4.874q-12.241,0-19.383-9.137t-7.153-25q-.03-15.094,7.262-24.344a23.417,23.417,0,0,1,19.273-9.253c6.215,0,11.368,1.7,15.409,5.087q6.1,5.128,8.276,14.811l-9.85.062a13.566,13.566,0,0,0-5.2-7.451c-2.62-2.082-5.25-2.306-8.511-2.306-4.6,0-8.4,2.184-11.374,6.492-2.926,4.341-4.4,9.9-4.4,16.719q.036,10.838,4.489,17.33c2.953,4.334,6.868,6.5,11.67,6.5a12.353,12.353,0,0,0,8.647-3.463,20.628,20.628,0,0,0,5.416-9.686Z" transform="translate(-625.783 -101.943)"/></g><g transform="translate(763.943 103.648)"><path class="a" d="M673.284,169.211h-5.077l-.085-66.144h10.626l.018,26.333h26.865l-.046-26.379h10.566s.043,54,.043,60.257a5.885,5.885,0,0,1-5.576,5.934h-4.935l-.052-29.469H678.776s.02,18.058.02,23.416a6.025,6.025,0,0,1-5.512,6.053" transform="translate(-668.122 -103.02)"/></g><g transform="translate(439.563 101.521)"><path class="b" d="M477.82,104.6a1.829,1.829,0,0,0,.41-2.393s-.494-1.2-2.389-.424a68.062,68.062,0,0,0-24.476,16.794,54.447,54.447,0,0,0-11.54,19.783,1.607,1.607,0,0,0,.609,2.3c.615.346,1.646-.241,2.275-.71a25.3,25.3,0,0,1,9.121-4.665,33.246,33.246,0,0,1,7.641-1.039c3.07-.112,4.083-1.211,4.083-1.211s1.091-.849,1.776-3.527a63.536,63.536,0,0,1,4.349-12.377A49.181,49.181,0,0,1,477.82,104.6" transform="translate(-439.563 -101.521)"/><g transform="translate(13.606 31.854)"><path class="b" d="M449.664,160.727a1.9,1.9,0,0,0-.2,2.333,1.7,1.7,0,0,0,1.773.375c6.216-2.428,17.046-7.577,25.67-17.447a56.358,56.358,0,0,0,11.387-19.622c.525-1.621-.344-2.076-.358-2.081s-.826-.825-2.184.173a27.252,27.252,0,0,1-9.32,4.671,28.87,28.87,0,0,1-6.811,1.219c-3.074.115-4.158.935-4.158.935a5.166,5.166,0,0,0-2.379,3.48,69,69,0,0,1-4.672,12.45,64.562,64.562,0,0,1-8.743,13.514" transform="translate(-449.15 -123.965)"/></g></g></g></svg>